<mxfile host="app.diagrams.net" modified="2023-12-18T13:22:57.004Z" agent="Mozilla/5.0 (Macintosh; Intel Mac OS X 10_15_6) AppleWebKit/605.1.15 (KHTML, like Gecko) Version/14.0.2 Safari/605.1.15" etag="YU1A6NU_GL-_zfYxZyt2" version="22.1.11" type="github">
  <diagram name="Page-1" id="edf60f1a-56cd-e834-aa8a-f176f3a09ee4">
    <mxGraphModel dx="953" dy="546" grid="1" gridSize="10" guides="1" tooltips="1" connect="1" arrows="1" fold="1" page="1" pageScale="1" pageWidth="1100" pageHeight="850" background="none" math="0" shadow="0">
      <root>
        <mxCell id="0" />
        <mxCell id="1" parent="0" />
        <mxCell id="wONnSeP6kajvjCJ7pNwK-2" value="Lay out for the time schedule&amp;nbsp;" style="rounded=0;whiteSpace=wrap;html=1;shadow=1;labelBackgroundColor=none;strokeWidth=1;fontFamily=Verdana;fontSize=8;align=center;fillColor=#fff2cc;strokeColor=#d6b656;" parent="1" vertex="1">
          <mxGeometry x="130" y="120" width="120" height="60" as="geometry" />
        </mxCell>
        <mxCell id="wONnSeP6kajvjCJ7pNwK-12" value="" style="edgeStyle=orthogonalEdgeStyle;rounded=0;orthogonalLoop=1;jettySize=auto;html=1;exitX=0.5;exitY=1;exitDx=0;exitDy=0;" parent="1" source="wONnSeP6kajvjCJ7pNwK-2" target="wONnSeP6kajvjCJ7pNwK-7" edge="1">
          <mxGeometry relative="1" as="geometry">
            <mxPoint x="150" y="200" as="sourcePoint" />
            <mxPoint x="200" y="180" as="targetPoint" />
          </mxGeometry>
        </mxCell>
        <mxCell id="wONnSeP6kajvjCJ7pNwK-38" style="edgeStyle=orthogonalEdgeStyle;rounded=0;orthogonalLoop=1;jettySize=auto;html=1;" parent="1" source="wONnSeP6kajvjCJ7pNwK-7" target="wONnSeP6kajvjCJ7pNwK-11" edge="1">
          <mxGeometry relative="1" as="geometry" />
        </mxCell>
        <mxCell id="wONnSeP6kajvjCJ7pNwK-7" value="Register for courses in reserve beforehand&lt;br&gt;&lt;br&gt;(희망과목담기)" style="rounded=0;whiteSpace=wrap;html=1;shadow=1;labelBackgroundColor=none;strokeWidth=1;fontFamily=Verdana;fontSize=8;align=center;fillColor=#fff2cc;strokeColor=#d6b656;" parent="1" vertex="1">
          <mxGeometry x="40" y="240" width="120" height="60" as="geometry" />
        </mxCell>
        <mxCell id="wONnSeP6kajvjCJ7pNwK-10" style="edgeStyle=orthogonalEdgeStyle;rounded=0;orthogonalLoop=1;jettySize=auto;html=1;entryX=0.5;entryY=0;entryDx=0;entryDy=0;" parent="1" target="wONnSeP6kajvjCJ7pNwK-8" edge="1">
          <mxGeometry relative="1" as="geometry">
            <mxPoint x="310" y="220" as="targetPoint" />
            <mxPoint x="190" y="210" as="sourcePoint" />
            <Array as="points">
              <mxPoint x="280" y="210" />
            </Array>
          </mxGeometry>
        </mxCell>
        <mxCell id="wONnSeP6kajvjCJ7pNwK-37" style="edgeStyle=orthogonalEdgeStyle;rounded=0;orthogonalLoop=1;jettySize=auto;html=1;entryX=0.5;entryY=0;entryDx=0;entryDy=0;" parent="1" source="wONnSeP6kajvjCJ7pNwK-8" target="wONnSeP6kajvjCJ7pNwK-11" edge="1">
          <mxGeometry relative="1" as="geometry" />
        </mxCell>
        <mxCell id="wONnSeP6kajvjCJ7pNwK-8" value="Making a note of the course numbers&amp;nbsp;" style="rounded=0;whiteSpace=wrap;html=1;shadow=1;labelBackgroundColor=none;strokeWidth=1;fontFamily=Verdana;fontSize=8;align=center;fillColor=#fff2cc;strokeColor=#d6b656;" parent="1" vertex="1">
          <mxGeometry x="220" y="240" width="120" height="60" as="geometry" />
        </mxCell>
        <mxCell id="wONnSeP6kajvjCJ7pNwK-43" style="edgeStyle=orthogonalEdgeStyle;rounded=0;orthogonalLoop=1;jettySize=auto;html=1;" parent="1" source="wONnSeP6kajvjCJ7pNwK-11" target="wONnSeP6kajvjCJ7pNwK-46" edge="1">
          <mxGeometry relative="1" as="geometry">
            <mxPoint x="190" y="490.0000000000001" as="targetPoint" />
          </mxGeometry>
        </mxCell>
        <mxCell id="wONnSeP6kajvjCJ7pNwK-11" value="Completely prepared?" style="rhombus;whiteSpace=wrap;html=1;rounded=0;shadow=1;labelBackgroundColor=none;strokeWidth=1;fontFamily=Verdana;fontSize=8;align=center;fillColor=#d5e8d4;strokeColor=#82b366;" parent="1" vertex="1">
          <mxGeometry x="130" y="375" width="110" height="65" as="geometry" />
        </mxCell>
        <mxCell id="wONnSeP6kajvjCJ7pNwK-26" value="" style="curved=1;endArrow=classic;html=1;rounded=0;exitX=1;exitY=0.5;exitDx=0;exitDy=0;entryX=1.021;entryY=0.636;entryDx=0;entryDy=0;entryPerimeter=0;" parent="1" source="wONnSeP6kajvjCJ7pNwK-11" target="wONnSeP6kajvjCJ7pNwK-8" edge="1">
          <mxGeometry width="50" height="50" relative="1" as="geometry">
            <mxPoint x="270" y="330" as="sourcePoint" />
            <mxPoint x="320" y="280" as="targetPoint" />
            <Array as="points">
              <mxPoint x="310" y="400" />
              <mxPoint x="360" y="370" />
              <mxPoint x="370" y="330" />
              <mxPoint x="360" y="300" />
            </Array>
          </mxGeometry>
        </mxCell>
        <mxCell id="wONnSeP6kajvjCJ7pNwK-27" value="No" style="text;html=1;strokeColor=none;fillColor=none;align=center;verticalAlign=middle;whiteSpace=wrap;rounded=0;" parent="1" vertex="1">
          <mxGeometry x="220" y="375" width="60" height="30" as="geometry" />
        </mxCell>
        <mxCell id="wONnSeP6kajvjCJ7pNwK-30" value="Yes" style="text;html=1;strokeColor=none;fillColor=none;align=center;verticalAlign=middle;whiteSpace=wrap;rounded=0;" parent="1" vertex="1">
          <mxGeometry x="200" y="435" width="20" height="20" as="geometry" />
        </mxCell>
        <mxCell id="wONnSeP6kajvjCJ7pNwK-34" value="Student" style="text;html=1;strokeColor=none;fillColor=none;align=center;verticalAlign=middle;whiteSpace=wrap;rounded=0;" parent="1" vertex="1">
          <mxGeometry x="160" y="70" width="60" height="30" as="geometry" />
        </mxCell>
        <mxCell id="wONnSeP6kajvjCJ7pNwK-41" style="edgeStyle=orthogonalEdgeStyle;rounded=0;orthogonalLoop=1;jettySize=auto;html=1;exitX=0.5;exitY=1;exitDx=0;exitDy=0;" parent="1" source="wONnSeP6kajvjCJ7pNwK-27" target="wONnSeP6kajvjCJ7pNwK-27" edge="1">
          <mxGeometry relative="1" as="geometry" />
        </mxCell>
        <mxCell id="wONnSeP6kajvjCJ7pNwK-50" style="edgeStyle=orthogonalEdgeStyle;rounded=0;orthogonalLoop=1;jettySize=auto;html=1;entryX=0;entryY=0.5;entryDx=0;entryDy=0;" parent="1" source="wONnSeP6kajvjCJ7pNwK-46" target="wONnSeP6kajvjCJ7pNwK-48" edge="1">
          <mxGeometry relative="1" as="geometry">
            <Array as="points">
              <mxPoint x="390" y="510" />
              <mxPoint x="390" y="145" />
            </Array>
          </mxGeometry>
        </mxCell>
        <mxCell id="wONnSeP6kajvjCJ7pNwK-46" value="Start registration&amp;nbsp;" style="rounded=0;whiteSpace=wrap;html=1;shadow=1;labelBackgroundColor=none;strokeWidth=1;fontFamily=Verdana;fontSize=8;align=center;fillColor=#fff2cc;strokeColor=#d6b656;" parent="1" vertex="1">
          <mxGeometry x="125" y="480" width="120" height="60" as="geometry" />
        </mxCell>
        <mxCell id="wONnSeP6kajvjCJ7pNwK-47" value="Website" style="text;html=1;strokeColor=none;fillColor=none;align=center;verticalAlign=middle;whiteSpace=wrap;rounded=0;" parent="1" vertex="1">
          <mxGeometry x="490" y="80" width="60" height="30" as="geometry" />
        </mxCell>
        <mxCell id="wONnSeP6kajvjCJ7pNwK-52" value="" style="edgeStyle=orthogonalEdgeStyle;rounded=0;orthogonalLoop=1;jettySize=auto;html=1;" parent="1" source="wONnSeP6kajvjCJ7pNwK-48" target="wONnSeP6kajvjCJ7pNwK-51" edge="1">
          <mxGeometry relative="1" as="geometry" />
        </mxCell>
        <mxCell id="wONnSeP6kajvjCJ7pNwK-48" value="Register the courses scheduled" style="rounded=0;whiteSpace=wrap;html=1;shadow=1;labelBackgroundColor=none;strokeWidth=1;fontFamily=Verdana;fontSize=8;align=center;fillColor=#fff2cc;strokeColor=#d6b656;" parent="1" vertex="1">
          <mxGeometry x="460" y="115" width="120" height="60" as="geometry" />
        </mxCell>
        <mxCell id="wONnSeP6kajvjCJ7pNwK-54" value="" style="edgeStyle=orthogonalEdgeStyle;rounded=0;orthogonalLoop=1;jettySize=auto;html=1;" parent="1" source="wONnSeP6kajvjCJ7pNwK-51" target="wONnSeP6kajvjCJ7pNwK-53" edge="1">
          <mxGeometry relative="1" as="geometry" />
        </mxCell>
        <mxCell id="wONnSeP6kajvjCJ7pNwK-57" value="" style="edgeStyle=orthogonalEdgeStyle;rounded=0;orthogonalLoop=1;jettySize=auto;html=1;" parent="1" source="wONnSeP6kajvjCJ7pNwK-51" target="wONnSeP6kajvjCJ7pNwK-56" edge="1">
          <mxGeometry relative="1" as="geometry" />
        </mxCell>
        <mxCell id="wONnSeP6kajvjCJ7pNwK-51" value="Confirm:&amp;nbsp;&lt;br&gt;All courses available?" style="rhombus;whiteSpace=wrap;html=1;fontSize=8;fontFamily=Verdana;rounded=0;shadow=1;labelBackgroundColor=none;strokeWidth=1;fillColor=#d5e8d4;strokeColor=#82b366;" parent="1" vertex="1">
          <mxGeometry x="465" y="220" width="110" height="70" as="geometry" />
        </mxCell>
        <mxCell id="wONnSeP6kajvjCJ7pNwK-53" value="Delete the closed classes in student&#39;s pre-time schedule" style="rounded=0;whiteSpace=wrap;html=1;fontSize=8;fontFamily=Verdana;shadow=1;labelBackgroundColor=none;strokeWidth=1;fillColor=#fff2cc;strokeColor=#d6b656;" parent="1" vertex="1">
          <mxGeometry x="790" y="226.25" width="110" height="57.5" as="geometry" />
        </mxCell>
        <mxCell id="wONnSeP6kajvjCJ7pNwK-55" value="No" style="text;html=1;strokeColor=none;fillColor=none;align=center;verticalAlign=middle;whiteSpace=wrap;rounded=0;" parent="1" vertex="1">
          <mxGeometry x="650" y="226.25" width="60" height="30" as="geometry" />
        </mxCell>
        <mxCell id="wONnSeP6kajvjCJ7pNwK-61" value="" style="edgeStyle=orthogonalEdgeStyle;rounded=0;orthogonalLoop=1;jettySize=auto;html=1;" parent="1" source="wONnSeP6kajvjCJ7pNwK-56" target="wONnSeP6kajvjCJ7pNwK-60" edge="1">
          <mxGeometry relative="1" as="geometry" />
        </mxCell>
        <mxCell id="wONnSeP6kajvjCJ7pNwK-56" value="Receive the registration&amp;nbsp;" style="whiteSpace=wrap;html=1;fontSize=8;fontFamily=Verdana;rounded=0;shadow=1;labelBackgroundColor=none;strokeWidth=1;fillColor=#fff2cc;strokeColor=#d6b656;" parent="1" vertex="1">
          <mxGeometry x="460" y="340" width="120" height="60" as="geometry" />
        </mxCell>
        <mxCell id="wONnSeP6kajvjCJ7pNwK-58" value="Yes" style="text;html=1;strokeColor=none;fillColor=none;align=center;verticalAlign=middle;whiteSpace=wrap;rounded=0;" parent="1" vertex="1">
          <mxGeometry x="510" y="295" width="60" height="30" as="geometry" />
        </mxCell>
        <mxCell id="wONnSeP6kajvjCJ7pNwK-68" value="" style="edgeStyle=orthogonalEdgeStyle;rounded=0;orthogonalLoop=1;jettySize=auto;html=1;" parent="1" source="wONnSeP6kajvjCJ7pNwK-60" target="wONnSeP6kajvjCJ7pNwK-67" edge="1">
          <mxGeometry relative="1" as="geometry" />
        </mxCell>
        <mxCell id="N3qWuI_qeOeCWawnyscP-4" style="edgeStyle=orthogonalEdgeStyle;rounded=0;orthogonalLoop=1;jettySize=auto;html=1;" parent="1" source="wONnSeP6kajvjCJ7pNwK-60" target="N3qWuI_qeOeCWawnyscP-1" edge="1">
          <mxGeometry relative="1" as="geometry" />
        </mxCell>
        <mxCell id="wONnSeP6kajvjCJ7pNwK-60" value="Vacancies at class?" style="rhombus;whiteSpace=wrap;html=1;fontSize=8;fontFamily=Verdana;rounded=0;shadow=1;labelBackgroundColor=none;strokeWidth=1;fillColor=#d5e8d4;strokeColor=#82b366;" parent="1" vertex="1">
          <mxGeometry x="465" y="437.5" width="110" height="65" as="geometry" />
        </mxCell>
        <mxCell id="wONnSeP6kajvjCJ7pNwK-65" value="No" style="text;html=1;strokeColor=none;fillColor=none;align=center;verticalAlign=middle;whiteSpace=wrap;rounded=0;" parent="1" vertex="1">
          <mxGeometry x="720" y="440" width="60" height="30" as="geometry" />
        </mxCell>
        <mxCell id="N3qWuI_qeOeCWawnyscP-13" value="" style="edgeStyle=orthogonalEdgeStyle;rounded=0;orthogonalLoop=1;jettySize=auto;html=1;" parent="1" source="wONnSeP6kajvjCJ7pNwK-67" target="N3qWuI_qeOeCWawnyscP-12" edge="1">
          <mxGeometry relative="1" as="geometry" />
        </mxCell>
        <mxCell id="wONnSeP6kajvjCJ7pNwK-67" value="Confirm the registration" style="whiteSpace=wrap;html=1;fontSize=8;fontFamily=Verdana;rounded=0;shadow=1;labelBackgroundColor=none;strokeWidth=1;fillColor=#fff2cc;strokeColor=#d6b656;" parent="1" vertex="1">
          <mxGeometry x="460" y="550" width="120" height="60" as="geometry" />
        </mxCell>
        <mxCell id="wONnSeP6kajvjCJ7pNwK-69" value="Yes" style="text;html=1;strokeColor=none;fillColor=none;align=center;verticalAlign=middle;whiteSpace=wrap;rounded=0;" parent="1" vertex="1">
          <mxGeometry x="510" y="505" width="60" height="30" as="geometry" />
        </mxCell>
        <mxCell id="N3qWuI_qeOeCWawnyscP-7" value="" style="edgeStyle=orthogonalEdgeStyle;rounded=0;orthogonalLoop=1;jettySize=auto;html=1;" parent="1" source="N3qWuI_qeOeCWawnyscP-1" target="N3qWuI_qeOeCWawnyscP-6" edge="1">
          <mxGeometry relative="1" as="geometry" />
        </mxCell>
        <mxCell id="N3qWuI_qeOeCWawnyscP-10" style="edgeStyle=orthogonalEdgeStyle;rounded=0;orthogonalLoop=1;jettySize=auto;html=1;entryX=1;entryY=0.5;entryDx=0;entryDy=0;exitX=0.504;exitY=1.013;exitDx=0;exitDy=0;exitPerimeter=0;" parent="1" source="N3qWuI_qeOeCWawnyscP-1" target="wONnSeP6kajvjCJ7pNwK-67" edge="1">
          <mxGeometry relative="1" as="geometry">
            <mxPoint x="674.46" y="499.6199999999999" as="sourcePoint" />
            <mxPoint x="580" y="590" as="targetPoint" />
            <Array as="points">
              <mxPoint x="680" y="532" />
              <mxPoint x="680" y="580" />
            </Array>
          </mxGeometry>
        </mxCell>
        <mxCell id="N3qWuI_qeOeCWawnyscP-1" value="&lt;font style=&quot;font-size: 10px;&quot;&gt;Delay until the vacancy&lt;/font&gt;" style="shape=or;whiteSpace=wrap;html=1;shadow=1;fillColor=#e1d5e7;strokeColor=#9673a6;" parent="1" vertex="1">
          <mxGeometry x="630" y="440" width="100" height="60" as="geometry" />
        </mxCell>
        <mxCell id="N3qWuI_qeOeCWawnyscP-2" value="No" style="text;html=1;strokeColor=none;fillColor=none;align=center;verticalAlign=middle;whiteSpace=wrap;rounded=0;" parent="1" vertex="1">
          <mxGeometry x="570" y="440" width="60" height="30" as="geometry" />
        </mxCell>
        <mxCell id="N3qWuI_qeOeCWawnyscP-6" value="&lt;font style=&quot;font-size: 10px;&quot;&gt;Fails to register&lt;/font&gt;" style="whiteSpace=wrap;html=1;shadow=1;fillColor=#fff2cc;strokeColor=#d6b656;" parent="1" vertex="1">
          <mxGeometry x="790" y="440" width="110" height="60" as="geometry" />
        </mxCell>
        <mxCell id="N3qWuI_qeOeCWawnyscP-11" value="&lt;font style=&quot;font-size: 10px;&quot;&gt;Complete the time schedule for the semester&lt;/font&gt;" style="rounded=1;whiteSpace=wrap;html=1;shadow=1;fillColor=#dae8fc;strokeColor=#6c8ebf;" parent="1" vertex="1">
          <mxGeometry x="130" y="575" width="110" height="65" as="geometry" />
        </mxCell>
        <mxCell id="N3qWuI_qeOeCWawnyscP-14" style="edgeStyle=orthogonalEdgeStyle;rounded=0;orthogonalLoop=1;jettySize=auto;html=1;entryX=0.5;entryY=1;entryDx=0;entryDy=0;exitX=0.5;exitY=1;exitDx=0;exitDy=0;" parent="1" source="N3qWuI_qeOeCWawnyscP-12" target="N3qWuI_qeOeCWawnyscP-11" edge="1">
          <mxGeometry relative="1" as="geometry">
            <mxPoint x="520" y="740" as="sourcePoint" />
          </mxGeometry>
        </mxCell>
        <mxCell id="N3qWuI_qeOeCWawnyscP-12" value="Update the finalized time schedule for the semester" style="whiteSpace=wrap;html=1;fontSize=8;fontFamily=Verdana;rounded=0;shadow=1;labelBackgroundColor=none;strokeWidth=1;fillColor=#fff2cc;strokeColor=#d6b656;" parent="1" vertex="1">
          <mxGeometry x="460" y="645" width="120" height="60" as="geometry" />
        </mxCell>
      </root>
    </mxGraphModel>
  </diagram>
</mxfile>
